<?xml version="1.0" standalone="no"?><!DOCTYPE svg PUBLIC "-//W3C//DTD SVG 1.1//EN" "http://www.w3.org/Graphics/SVG/1.1/DTD/svg11.dtd"><svg t="1608798481961" class="icon" viewBox="0 0 1024 1024" version="1.1" xmlns="http://www.w3.org/2000/svg" p-id="2473" xmlns:xlink="http://www.w3.org/1999/xlink" width="200" height="200"><defs><style type="text/css"></style></defs><path d="M542.7 512m-450 0a450 450 0 1 0 900 0 450 450 0 1 0-900 0Z" fill="#FDAAAA" opacity=".6" p-id="2474"></path><path d="M543.7 585c-30.8 0-61.6 11.5-80.8 30.8-7.7 7.7-19.2 7.7-26.9 0-11.5-7.7-7.7-23.1 0-34.6 19.2-15.4 46.2-26.9 73.1-34.6l34.6 38.4zM412.8 458c-26.9 11.5-50 26.9-69.3 46.2-7.7 7.7-7.7 23.1 0 30.8 7.7 7.7 23.1 7.7 26.9 0 23.1-19.2 46.2-34.6 73.1-46.2L412.8 458z m-96.2-96.2c-23.1 15.4-50 34.6-69.3 57.7-7.7 7.7-7.7 23.1 0 30.8 7.7 7.7 19.2 7.7 26.9 0 23.1-23.1 46.2-42.3 73.1-57.7l-30.7-30.8z m519.6 57.7c-77-77-180.9-123.2-292.5-123.2-46.2 0-88.5 7.7-127 19.2l34.6 34.6c26.9-7.7 57.7-11.5 92.4-11.5 103.9 0 196.3 42.3 265.5 107.8 7.7 11.5 19.2 11.5 26.9 0 7.8-3.8 11.6-19.2 0.1-26.9z m-292.5 7.7h-15.4l46.2 46.2c50 3.8 100.1 26.9 134.7 61.6 7.7 7.7 19.2 7.7 26.9 0 11.5-7.7 11.5-23.1 0-30.8-50-46.2-119.3-77-192.4-77z m0 246.3c-23.1 0-42.3 19.2-42.3 42.3 0 23.1 19.2 42.3 42.3 42.3 23.1 0 42.3-19.2 42.3-42.3 0-26.9-19.2-42.3-42.3-42.3z m115.5-73.1l-38.5-38.5-92.4-92.4-38.5-38.5-103.9-103.9-23.1-23.1c-11.5-7.7-23.1-7.7-30.8 0-7.7 7.7-7.7 23.1 0 30.8l315.6 315.6c7.7 7.7 23.1 7.7 30.8 0 7.7-7.7 7.7-23.1 0-30.8l-19.2-19.2z m0 0" fill="#F44336" p-id="2475"></path></svg>