<?xml version="1.0" standalone="no"?><!DOCTYPE svg PUBLIC "-//W3C//DTD SVG 1.1//EN" "http://www.w3.org/Graphics/SVG/1.1/DTD/svg11.dtd"><svg t="1608799147356" class="icon" viewBox="0 0 1024 1024" version="1.1" xmlns="http://www.w3.org/2000/svg" p-id="9996" xmlns:xlink="http://www.w3.org/1999/xlink" width="200" height="200"><defs><style type="text/css"></style></defs><path d="M512 32C246.4 32 32 246.4 32 512s214.4 480 480 480 480-214.4 480-480S777.6 32 512 32z m0 896C281.6 928 96 742.4 96 512S281.6 96 512 96s416 185.6 416 416-185.6 416-416 416z" p-id="9997" fill="#d81e06"></path><path d="M512 704m-38.4 0a38.4 38.4 0 1 0 76.8 0 38.4 38.4 0 1 0-76.8 0Z" p-id="9998" fill="#d81e06"></path><path d="M512 256c-28.8 0-48 19.2-48 44.8l16 320c0 9.6 16 19.2 32 19.2 19.2 0 32-9.6 32-19.2l16-320c0-25.6-19.2-44.8-48-44.8z" p-id="9999" fill="#d81e06"></path></svg>